<svg width="54" height="47" viewBox="0 0 54 47" fill="none" xmlns="http://www.w3.org/2000/svg">
<path d="M30.3532 21.2C30.3532 19.83 29.4332 19.18 27.6032 19.25C27.3932 19.25 27.1932 19.27 27.0032 19.3L26.6032 19.35C25.4332 19.63 24.8532 20.31 24.8532 21.4V21.45C24.8632 21.68 24.9132 21.89 25.0032 22.1C25.0432 22.2 25.0932 22.3 25.1532 22.4C25.3932 22.83 25.7932 23.16 26.3532 23.4C26.2232 23.42 26.0732 23.44 25.9032 23.45C25.0032 23.48 24.1532 23.47 23.3532 23.4C22.3232 23.3 21.4832 22.87 20.8532 22.1C20.3532 21.53 20.1032 21 20.1032 20.5C20.1032 20.1 20.1032 19.65 20.1032 19.15C20.1132 18.69 20.4932 17.82 21.2532 16.55C21.3332 16.46 21.4032 16.36 21.4532 16.25C21.6132 16.05 21.7632 15.85 21.9032 15.65C22.0232 15.5 22.1432 15.35 22.2532 15.2C22.1632 15.27 22.0632 15.32 21.9532 15.35C21.9232 15.39 21.8932 15.43 21.8532 15.45C21.4332 15.68 21.0332 15.93 20.6532 16.2C20.4532 16.39 20.2532 16.59 20.0532 16.8C19.8232 17.1 19.6232 17.43 19.4532 17.8L19.5032 17.6C19.4032 17.8 19.2832 18 19.1532 18.2C18.8332 18.77 18.4532 19.3 18.0032 19.8C16.7732 21.17 15.3732 21.85 13.8032 21.85C13.3132 21.85 12.8132 21.75 12.3032 21.55L12.3532 21.6C12.6932 22.06 12.9232 22.66 13.0532 23.4C13.1832 24.13 13.1432 24.75 12.9532 25.25C12.7532 25.75 12.2532 26.29 11.4532 26.85C10.7432 27.35 10.2532 27.72 10.0032 27.95C10.3532 28.19 10.6132 28.59 10.8032 29.15C10.9932 29.72 11.0932 30.28 11.1032 30.85C11.1032 31.39 10.5032 32.17 9.30315 33.2C10.3332 33.47 11.1332 33.28 11.7032 32.65C12.1032 32.18 12.3032 31.67 12.3032 31.1C12.3032 30.5 12.1232 29.9 11.7532 29.3C11.5532 28.95 11.3032 28.64 11.0032 28.35C11.9232 28.26 12.6732 27.81 13.2532 27C13.7232 26.27 13.9532 25.58 13.9532 24.95C13.9532 23.65 13.6832 22.83 13.1532 22.5C13.6332 22.67 14.1532 22.75 14.7032 22.75C15.6332 22.75 16.4732 22.5 17.2032 22C17.7732 21.6 18.1832 21.13 18.4532 20.6C18.6332 20.24 18.8032 19.84 18.9532 19.4V19.45C18.7132 20.89 18.9632 22.05 19.7032 22.95C20.4332 23.85 21.6532 24.38 23.3532 24.55C24.3232 24.62 25.2732 24.48 26.2032 24.15C26.5932 23.98 26.9132 23.82 27.1532 23.65C27.2732 23.57 27.3732 23.48 27.4532 23.4C26.3932 22.63 25.8432 22.04 25.8032 21.65C25.7632 21.29 25.9032 20.99 26.2032 20.75C26.6332 20.42 27.1832 20.25 27.8532 20.25C28.9832 20.25 29.5532 20.62 29.5532 21.35C29.5532 22.08 29.1332 22.84 28.3032 23.6C28.2632 23.65 28.2132 23.7 28.1532 23.75C28.1032 23.8 28.0332 23.85 27.9532 23.9C28.6632 24.1 29.3532 24.27 30.0032 24.4C31.4032 24.4 32.8532 24 34.3532 23.2C35.9232 22.37 36.8932 21.32 37.2532 20.05C37.3132 20.46 37.4432 20.88 37.6532 21.3C38.0832 22.23 38.7831 22.7 39.7532 22.7C40.5632 22.7 41.2332 22.53 41.7532 22.2C41.4231 22.56 41.1731 22.93 41.0032 23.3C40.7732 23.8 40.6532 24.5 40.6532 25.4C40.6532 25.9 40.7732 26.42 41.0032 26.95C41.4332 27.82 42.1031 28.25 43.0032 28.25C43.0331 28.25 43.2532 28.2 43.6532 28.1C43.2732 28.61 43.0032 29.06 42.8532 29.45C42.6832 29.85 42.6032 30.37 42.6032 31C42.6032 31.4 42.7332 31.82 43.0032 32.25C43.3632 32.87 43.8832 33.19 44.5532 33.2C44.6031 33.17 44.6532 33.13 44.7032 33.1C44.9332 32.94 45.1532 32.79 45.3532 32.65C44.6432 32.3 44.1432 31.9 43.8532 31.45C43.5532 31.05 43.4032 30.48 43.4032 29.75C43.5532 28.96 43.8531 28.26 44.3032 27.65C42.4731 27.19 41.5532 26.27 41.5532 24.9C41.5532 24.57 41.6231 24.12 41.7532 23.55C41.7831 23.45 41.8132 23.33 41.8532 23.2L42.0032 22.8C42.1031 22.65 42.2132 22.43 42.3532 22.15V22.2C42.5132 21.96 42.6932 21.68 42.9032 21.35C42.7632 21.42 42.6132 21.47 42.4532 21.5L42.3532 21.55C42.3532 21.55 42.2932 21.56 42.2532 21.55C41.8432 21.68 41.3932 21.73 40.9032 21.7C40.1332 21.66 39.6632 21.61 39.5032 21.55C39.3731 21.52 39.1732 21.47 38.9032 21.4C37.9032 20.7 37.4032 20.08 37.4032 19.55C37.4032 19.46 37.4032 19.39 37.4032 19.35H37.3532C37.3832 19.2 37.4032 19.05 37.4032 18.9C37.4032 17.63 37.1732 16.67 36.7032 16C36.6032 15.85 36.4832 15.7 36.3532 15.55C36.5032 15.89 36.5032 16.79 36.3532 18.25C36.2332 19.71 35.6231 20.86 34.5032 21.7C33.9832 22.09 33.4332 22.4 32.8532 22.65C32.6332 22.77 32.4032 22.87 32.1532 22.95C31.7132 23.1 31.2632 23.22 30.8032 23.3C29.4632 23.52 28.7432 23.62 28.6532 23.6C29.1732 23.28 29.5432 23.01 29.7532 22.8C30.1532 22.4 30.3532 21.87 30.3532 21.2ZM39.6532 5.55C40.0732 5.8 40.4732 6.06 40.8532 6.35C41.0132 6.47 41.1632 6.59 41.3032 6.7C41.2032 6.7 41.1031 6.7 41.0032 6.7C40.4632 6.79 39.8932 6.97 39.3032 7.25L39.7532 7.4C40.1832 7.38 40.5932 7.42 41.0032 7.5C41.4532 7.59 41.8832 7.74 42.3032 7.95C42.9231 8.24 43.5732 8.99 44.2532 10.2C44.3432 10.38 44.4231 10.57 44.5032 10.75C44.5832 10.87 44.6532 10.99 44.7032 11.1C44.7332 11.18 44.7732 11.25 44.8032 11.3C44.8632 11.17 44.9332 11.02 45.0032 10.85C45.0932 10.61 45.1432 10.4 45.1532 10.2C45.1832 10.16 45.2032 10.11 45.2032 10.05V9.95C45.2032 9.81 45.1832 9.68 45.1532 9.55C46.2032 9.87 47.0532 10.42 47.7032 11.2C48.4032 12 48.7532 12.78 48.7532 13.55C48.7532 13.74 48.7232 13.99 48.6532 14.3L48.4532 15.1C48.4332 15.25 48.4232 15.38 48.4032 15.5H48.3532V15.55H48.3032C48.1731 15.53 48.0232 15.51 47.8532 15.5C47.9332 15.56 48.0132 15.63 48.1032 15.7C48.2132 15.78 48.3332 15.86 48.4532 15.95C48.7032 16.13 49.0232 16.48 49.4032 17C49.8132 17.52 50.0832 18.12 50.2032 18.8C50.3632 19.51 50.4332 20.03 50.4032 20.35C50.4032 20.55 50.4032 20.78 50.3532 21.05C50.3432 21.09 50.3232 21.12 50.3032 21.15C50.2831 21.36 50.2332 21.59 50.1532 21.85C50.4832 22.11 50.9232 22.53 51.4532 23.1C52.2932 23.96 52.6432 24.94 52.5032 26.05C52.3731 27.16 52.0732 27.98 51.6032 28.5C51.1632 29.01 50.8632 29.26 50.7032 29.25L50.6532 29.2C50.6132 29.15 50.5632 29.1 50.5032 29.05V29C50.5032 29 50.4032 28.95 50.3532 28.9C50.2932 28.88 50.2332 28.85 50.1532 28.8C50.3432 29.38 50.4832 29.83 50.5532 30.15C50.6531 30.5 50.6832 31.19 50.6532 32.2C50.6732 32.36 50.6732 32.51 50.6532 32.65C50.6532 32.69 50.6332 32.72 50.6032 32.75C50.6032 32.89 50.5831 33.03 50.5532 33.15C50.3932 33.83 50.0631 34.45 49.5532 35C49.0631 35.6 48.6332 35.96 48.2532 36.1C48.2332 36.51 48.2032 36.84 48.1532 37.1C48.1532 37.12 48.1532 37.14 48.1532 37.15C48.4232 38.1 48.5532 38.75 48.5532 39.1C48.5532 40.63 47.1832 41.53 44.4532 41.8C44.4232 41.73 44.3832 41.68 44.3532 41.65C44.3532 41.62 43.9332 42.18 43.1032 43.35C42.4732 44.26 41.7232 44.86 40.8532 45.15C40.5932 45.39 40.3632 45.61 40.1532 45.8C40.3232 45.8 40.5032 45.77 40.7032 45.75C42.3032 45.71 43.3331 45.26 43.8032 44.4C44.3032 43.58 44.5432 42.86 44.5032 42.25C45.5032 42.38 46.1832 42.45 46.5532 42.45C47.5532 42.45 48.3532 42.05 48.9532 41.25C49.3832 40.68 49.6032 40.18 49.6032 39.75C49.6032 38.95 49.5032 38.3 49.3032 37.8C49.2032 37.56 48.9532 37.11 48.5532 36.45C49.5032 36.45 50.3032 36.09 50.9532 35.35C51.6432 34.62 51.9732 33.77 51.9532 32.8C51.9532 31.83 51.7732 30.98 51.4032 30.25C51.2832 30 51.1432 29.79 51.0032 29.6C52.2032 29.27 53.0232 28.7 53.4532 27.9C53.7232 27.4 53.8532 26.68 53.8532 25.75C53.8532 25.45 53.7332 25 53.5032 24.4C53.2332 23.8 52.9532 23.35 52.6532 23.05C52.3832 22.65 51.8732 22.25 51.1032 21.85C51.0632 21.83 51.0132 21.79 50.9532 21.75C51.0632 21.66 51.1432 21.39 51.2032 20.95C51.2632 20.54 51.3032 20.04 51.3032 19.45C51.3432 18.89 51.2032 18.29 50.9032 17.65C50.6032 17.04 49.9832 16.42 49.0532 15.8C50.4532 14 50.5432 12.44 49.3032 11.1C48.0732 9.8 46.7332 9.15 45.3032 9.15H45.0532C44.8632 8.6 44.4632 8.07 43.8532 7.55C43.2132 7.02 42.5032 6.73 41.7032 6.7C41.6532 6.22 41.5332 5.82 41.3532 5.5C40.9832 4.87 40.3032 4.33 39.3032 3.9C38.2332 3.53 37.0532 3.47 35.7532 3.7C35.2432 3.78 34.8432 3.88 34.5532 4C34.4632 3.57 33.8932 2.99 32.8532 2.25C31.8032 1.51 30.0432 1.12 27.5532 1.1C27.8832 1.62 28.1132 2.09 28.2532 2.5C28.4232 3.03 28.5032 3.45 28.5032 3.75C28.5032 3.92 28.3732 4.07 28.1032 4.2C27.7332 4.37 27.2232 4.43 26.5532 4.4C25.9232 4.1 25.6032 3.83 25.6032 3.6C25.6032 3.37 25.8232 3.07 26.2532 2.7C26.3232 2.6 26.6532 2.3 27.2532 1.8C26.5532 1.13 25.8232 0.800003 25.0532 0.800003C22.9232 0.800003 21.1732 1.47 19.8032 2.8C18.8732 3.73 18.3432 4.63 18.2032 5.5C17.5732 5.18 16.7932 5.25 15.8532 5.7C15.5032 5.02 14.7632 4.72 13.6532 4.8C12.3232 4.87 11.2732 5.37 10.5032 6.3C10.2032 6.63 9.83315 7.17 9.40315 7.9C8.90315 8.73 8.65315 9.32 8.65315 9.65V9.75C7.07315 9.5 5.86315 10.08 5.00315 11.5C4.33315 12.6 4.00315 13.82 4.00315 15.15C4.00315 15.55 4.07315 15.98 4.20315 16.45C4.26315 16.68 4.33315 16.86 4.40315 17C4.24315 16.7 3.84315 16.9 3.20315 17.6C2.56315 18.31 2.19315 19.06 2.10315 19.85C2.00315 20.64 2.24315 21.39 2.80315 22.1C1.16315 22.93 0.243153 24.16 0.053153 25.8C-0.136847 27.44 0.183153 28.69 1.00315 29.55C1.81315 30.39 2.69315 30.86 3.65315 30.95C3.50315 30.98 3.25315 31.3 2.90315 31.9C2.58315 32.5 2.38315 33.25 2.30315 34.15C2.25315 35.09 2.53315 35.77 3.15315 36.2C3.32315 36.32 3.48315 36.42 3.65315 36.5C4.09315 36.73 4.50315 36.83 4.90315 36.8C5.05315 36.81 5.19315 36.81 5.30315 36.8C5.02315 37.14 4.82315 37.47 4.70315 37.8C4.50315 38.3 4.40315 38.95 4.40315 39.75C4.40315 40.18 4.62315 40.68 5.05315 41.25C5.65315 42.05 6.45315 42.45 7.45315 42.45C7.82315 42.45 8.51315 42.37 9.50315 42.2C9.51315 42.86 9.70315 43.55 10.0532 44.25C10.6232 45.48 11.5732 46.13 12.9032 46.2C13.8232 46.28 14.5732 46.21 15.1532 46C14.9632 45.95 14.7232 45.89 14.4532 45.8C14.3932 45.8 14.3232 45.78 14.2532 45.75C12.5932 45.21 11.0932 43.81 9.75315 41.55C9.68315 41.6 9.65315 41.63 9.65315 41.65C9.60315 41.68 9.57315 41.73 9.55315 41.8C6.82315 41.54 5.45315 40.64 5.45315 39.1C5.45315 38.5 5.57315 37.62 5.80315 36.45C5.44315 36.3 5.16315 36.18 4.95315 36.1C4.32315 35.86 3.83315 35.29 3.50315 34.4C3.19315 33.51 3.46315 32.36 4.30315 30.95L4.25315 30.9C4.42315 30.9 4.59315 30.86 4.75315 30.8C3.52315 30.28 2.67315 29.76 2.20315 29.25C1.94315 28.93 1.72315 28.57 1.55315 28.15L1.50315 27.95C1.39315 27.53 1.34315 27.05 1.35315 26.5C1.35315 26.32 1.35315 26.14 1.35315 25.95V25.9C1.46315 25.03 1.73315 24.27 2.15315 23.6C2.22315 23.51 2.29315 23.43 2.35315 23.35C2.67315 22.89 2.97315 22.54 3.25315 22.3H3.30315C3.24315 22.13 3.19315 21.96 3.15315 21.8C3.15315 21.77 3.12315 21.73 3.10315 21.7C2.98315 21.22 2.92315 20.82 2.90315 20.5C2.90315 19.35 3.64315 18.13 5.10315 16.85H5.05315L4.80315 16.7C4.80315 16.7 4.78315 16.68 4.75315 16.65C4.68315 16.36 4.65315 16.07 4.65315 15.8C4.65315 15.07 4.88315 14.27 5.35315 13.4L5.90315 12.6C5.90315 12.6 5.97315 12.54 6.00315 12.5C7.02315 11.07 8.24315 10.26 9.65315 10.05H9.75315C9.83315 10.05 9.92315 10.05 10.0032 10.05L9.95315 10C9.87315 9.96 9.66315 9.93 9.30315 9.9C9.21315 9.87 9.11315 9.84 9.00315 9.8C9.09315 9.4 9.29315 8.96 9.60315 8.5C9.67315 8.43 9.74315 8.34 9.80315 8.25C9.94315 8.07 10.0932 7.89 10.2532 7.7C10.3132 7.65 10.3632 7.6 10.4032 7.55C11.4332 6.45 12.5732 5.9 13.8032 5.9C14.4032 6.05 14.8732 6.15 15.2032 6.2C14.9432 6.28 14.5132 6.7 13.9032 7.45C13.8732 7.52 13.8432 7.59 13.8032 7.65C13.3032 8.37 13.0532 9.1 13.0532 9.85C13.1232 9.72 13.1832 9.59 13.2532 9.45C13.3632 9.25 13.4932 9.05 13.6532 8.85L14.6032 7.9C14.6032 7.9 14.6832 7.83 14.7032 7.8C14.9832 7.58 15.2532 7.38 15.5032 7.2C15.8232 7 16.1232 6.83 16.4032 6.7C16.6132 6.62 16.7932 6.55 16.9532 6.5C17.1832 6.44 17.3632 6.39 17.5032 6.35C17.8232 6.26 18.0232 6.19 18.1032 6.15H18.1532C18.1532 6.39 18.1732 6.54 18.2032 6.6V6.65C18.2032 6.65 18.2032 6.69 18.2032 6.7C18.2632 6.79 18.3232 6.88 18.4032 6.95C18.4932 7.04 18.6132 7.12 18.7532 7.2C18.7232 6.7 18.7532 6.23 18.8532 5.8V5.75C19.1432 4.75 19.6732 3.93 20.4532 3.3C21.6532 2.33 23.1732 1.85 25.0032 1.85H25.0532C25.1432 1.85 25.2432 1.87 25.3532 1.9C25.5932 1.94 25.8932 2.01 26.2532 2.1C26.1332 2.15 26.0132 2.2 25.9032 2.25C25.7332 2.37 25.5832 2.51 25.4532 2.65C25.3332 2.77 25.2332 2.89 25.1532 3C24.9832 3.29 24.9032 3.59 24.9032 3.9C24.9332 4.17 25.0532 4.43 25.2532 4.7C25.6232 5.2 26.2232 5.45 27.0532 5.45C27.1032 5.45 27.1532 5.45 27.2032 5.45C27.2232 5.45 27.2432 5.45 27.2532 5.45C27.3132 5.45 27.3632 5.45 27.4032 5.45C27.4932 5.45 27.5732 5.42 27.6532 5.4C27.7232 5.4 27.7932 5.39 27.8532 5.35C28.1632 5.3 28.4332 5.2 28.6532 5.05C28.7632 4.99 28.8632 4.92 28.9532 4.85C29.2932 4.59 29.4932 4.32 29.5532 4.05C29.5932 3.98 29.5932 3.88 29.5532 3.75C29.5432 3.48 29.3932 3.06 29.1032 2.5C29.0732 2.44 29.0432 2.38 29.0032 2.3L28.5032 1.65C28.5032 1.65 28.4432 1.56 28.4032 1.5C28.3532 1.48 28.3032 1.44 28.2532 1.4C30.1032 1.71 31.5431 2.4 32.5532 3.45C32.7431 3.64 32.9132 3.84 33.0532 4.05C33.8432 5.15 34.2932 6.22 34.4032 7.25C34.4332 7.6 34.4332 7.93 34.4032 8.25C34.8732 7.95 35.1032 7.5 35.1032 6.9C35.1032 6.83 35.1032 6.75 35.1032 6.65L35.0032 6V5.95C34.9732 5.6 34.9132 5.19 34.8032 4.7C36.6531 4.46 38.2732 4.75 39.6532 5.55Z" fill="black"/>
</svg>
